<svg width="170" height="170" viewBox="0 0 170 170" fill="none" xmlns="http://www.w3.org/2000/svg">
<path d="M77.5 4.33013C82.141 1.65064 87.859 1.65064 92.5 4.33013L151.112 38.1699C155.753 40.8494 158.612 45.8013 158.612 51.1603V118.84C158.612 124.199 155.753 129.151 151.112 131.83L92.5 165.67C87.859 168.349 82.141 168.349 77.5 165.67L18.8878 131.83C14.2468 129.151 11.3878 124.199 11.3878 118.84V51.1603C11.3878 45.8013 14.2468 40.8494 18.8878 38.1699L77.5 4.33013Z" fill="black"/>
<path d="M130 57.125C130 52.1062 125.905 48 120.9 48H48.1C43.095 48 39 52.1062 39 57.125V111.875C39 116.894 43.095 121 48.1 121H120.9C125.905 121 130 116.894 130 111.875V57.125ZM120.9 57.125L84.5 79.9375L48.1 57.125H120.9ZM120.9 111.875H48.1V66.25L84.5 89.0625L120.9 66.25V111.875Z" fill="white"/>
</svg>
