<svg width="170" height="170" viewBox="0 0 170 170" fill="none" xmlns="http://www.w3.org/2000/svg">
<path d="M77.5 4.33013C82.141 1.65064 87.859 1.65064 92.5 4.33013L151.112 38.1699C155.753 40.8494 158.612 45.8013 158.612 51.1603V118.84C158.612 124.199 155.753 129.151 151.112 131.83L92.5 165.67C87.859 168.349 82.141 168.349 77.5 165.67L18.8878 131.83C14.2468 129.151 11.3878 124.199 11.3878 118.84V51.1603C11.3878 45.8013 14.2468 40.8494 18.8878 38.1699L77.5 4.33013Z" fill="black"/>
<path d="M85.5 43C79.9188 43 74.3923 44.1202 69.236 46.2967C64.0796 48.4732 59.3945 51.6633 55.448 55.685C47.4777 63.807 43 74.8229 43 86.3092C43 105.452 55.1975 121.693 72.07 127.453C74.195 127.799 74.875 126.457 74.875 125.287C74.875 124.291 74.875 121.563 74.875 117.968C63.1025 120.567 60.595 112.165 60.595 112.165C58.64 107.141 55.8775 105.798 55.8775 105.798C52.01 103.113 56.175 103.2 56.175 103.2C60.425 103.503 62.6775 107.661 62.6775 107.661C66.375 114.244 72.6225 112.295 75.045 111.255C75.4275 108.44 76.5325 106.535 77.7225 105.452C68.2875 104.369 58.385 100.645 58.385 84.1437C58.385 79.3364 60 75.4819 62.7625 72.4069C62.3375 71.3242 60.85 66.8201 63.1875 60.9733C63.1875 60.9733 66.7575 59.804 74.875 65.3909C78.2325 64.438 81.8875 63.9616 85.5 63.9616C89.1125 63.9616 92.7675 64.438 96.125 65.3909C104.243 59.804 107.812 60.9733 107.812 60.9733C110.15 66.8201 108.662 71.3242 108.238 72.4069C111 75.4819 112.615 79.3364 112.615 84.1437C112.615 100.688 102.67 104.326 93.1925 105.409C94.7225 106.751 96.125 109.393 96.125 113.421C96.125 119.224 96.125 123.902 96.125 125.287C96.125 126.457 96.805 127.843 98.9725 127.453C115.845 121.649 128 105.452 128 86.3092C128 80.6217 126.901 74.99 124.765 69.7355C122.629 64.481 119.499 59.7066 115.552 55.685C111.606 51.6633 106.92 48.4732 101.764 46.2967C96.6077 44.1202 91.0812 43 85.5 43Z" fill="white"/>
</svg>
