<svg width="170" height="170" viewBox="0 0 170 170" fill="none" xmlns="http://www.w3.org/2000/svg">
<path d="M77.5 4.33013C82.141 1.65064 87.859 1.65064 92.5 4.33013L151.112 38.1699C155.753 40.8494 158.612 45.8013 158.612 51.1603V118.84C158.612 124.199 155.753 129.151 151.112 131.83L92.5 165.67C87.859 168.349 82.141 168.349 77.5 165.67L18.8878 131.83C14.2468 129.151 11.3878 124.199 11.3878 118.84V51.1603C11.3878 45.8013 14.2468 40.8494 18.8878 38.1699L77.5 4.33013Z" fill="black"/>
<path d="M67.65 42H103.35C116.95 42 128 53.05 128 66.65V102.35C128 108.888 125.403 115.157 120.78 119.78C116.157 124.403 109.888 127 103.35 127H67.65C54.05 127 43 115.95 43 102.35V66.65C43 60.1124 45.597 53.8426 50.2198 49.2198C54.8426 44.597 61.1124 42 67.65 42ZM66.8 50.5C62.7422 50.5 58.8506 52.112 55.9813 54.9813C53.112 57.8506 51.5 61.7422 51.5 65.8V103.2C51.5 111.658 58.3425 118.5 66.8 118.5H104.2C108.258 118.5 112.149 116.888 115.019 114.019C117.888 111.149 119.5 107.258 119.5 103.2V65.8C119.5 57.3425 112.658 50.5 104.2 50.5H66.8ZM107.812 56.875C109.221 56.875 110.573 57.4347 111.569 58.431C112.565 59.4273 113.125 60.7785 113.125 62.1875C113.125 63.5965 112.565 64.9477 111.569 65.944C110.573 66.9403 109.221 67.5 107.812 67.5C106.404 67.5 105.052 66.9403 104.056 65.944C103.06 64.9477 102.5 63.5965 102.5 62.1875C102.5 60.7785 103.06 59.4273 104.056 58.431C105.052 57.4347 106.404 56.875 107.812 56.875ZM85.5 63.25C91.1358 63.25 96.5409 65.4888 100.526 69.474C104.511 73.4591 106.75 78.8642 106.75 84.5C106.75 90.1358 104.511 95.5409 100.526 99.526C96.5409 103.511 91.1358 105.75 85.5 105.75C79.8642 105.75 74.4591 103.511 70.474 99.526C66.4888 95.5409 64.25 90.1358 64.25 84.5C64.25 78.8642 66.4888 73.4591 70.474 69.474C74.4591 65.4888 79.8642 63.25 85.5 63.25ZM85.5 71.75C82.1185 71.75 78.8755 73.0933 76.4844 75.4844C74.0933 77.8755 72.75 81.1185 72.75 84.5C72.75 87.8815 74.0933 91.1245 76.4844 93.5156C78.8755 95.9067 82.1185 97.25 85.5 97.25C88.8815 97.25 92.1245 95.9067 94.5156 93.5156C96.9067 91.1245 98.25 87.8815 98.25 84.5C98.25 81.1185 96.9067 77.8755 94.5156 75.4844C92.1245 73.0933 88.8815 71.75 85.5 71.75Z" fill="white"/>
</svg>
