<svg width="170" height="170" viewBox="0 0 170 170" fill="none" xmlns="http://www.w3.org/2000/svg">
<path d="M77.5 4.33013C82.141 1.65064 87.859 1.65064 92.5 4.33013L151.112 38.1699C155.753 40.8494 158.612 45.8013 158.612 51.1603V118.84C158.612 124.199 155.753 129.151 151.112 131.83L92.5 165.67C87.859 168.349 82.141 168.349 77.5 165.67L18.8878 131.83C14.2468 129.151 11.3878 124.199 11.3878 118.84V51.1603C11.3878 45.8013 14.2468 40.8494 18.8878 38.1699L77.5 4.33013Z" fill="black"/>
<path d="M116.111 47C118.469 47 120.73 47.9365 122.397 49.6035C124.063 51.2705 125 53.5314 125 55.8889V118.111C125 120.469 124.063 122.73 122.397 124.397C120.73 126.063 118.469 127 116.111 127H53.8889C51.5314 127 49.2705 126.063 47.6035 124.397C45.9365 122.73 45 120.469 45 118.111V55.8889C45 53.5314 45.9365 51.2705 47.6035 49.6035C49.2705 47.9365 51.5314 47 53.8889 47H116.111ZM113.889 115.889V92.3333C113.889 88.4906 112.362 84.8053 109.645 82.0881C106.928 79.3709 103.243 77.8444 99.4 77.8444C95.6222 77.8444 91.2222 80.1556 89.0889 83.6222V78.6889H76.6889V115.889H89.0889V93.9778C89.0889 90.5556 91.8444 87.7556 95.2667 87.7556C96.9169 87.7556 98.4996 88.4111 99.6664 89.578C100.833 90.7449 101.489 92.3275 101.489 93.9778V115.889H113.889ZM62.2444 71.7111C64.2247 71.7111 66.1239 70.9244 67.5242 69.5242C68.9244 68.1239 69.7111 66.2247 69.7111 64.2444C69.7111 60.1111 66.3778 56.7333 62.2444 56.7333C60.2524 56.7333 58.3419 57.5247 56.9333 58.9333C55.5247 60.3419 54.7333 62.2524 54.7333 64.2444C54.7333 68.3778 58.1111 71.7111 62.2444 71.7111ZM68.4222 115.889V78.6889H56.1111V115.889H68.4222Z" fill="white"/>
</svg>
