<svg width="170" height="170" viewBox="0 0 170 170" fill="none" xmlns="http://www.w3.org/2000/svg">
<path d="M77.5 4.33013C82.141 1.65064 87.859 1.65064 92.5 4.33013L151.112 38.1699C155.753 40.8494 158.612 45.8013 158.612 51.1603V118.84C158.612 124.199 155.753 129.151 151.112 131.83L92.5 165.67C87.859 168.349 82.141 168.349 77.5 165.67L18.8878 131.83C14.2468 129.151 11.3878 124.199 11.3878 118.84V51.1603C11.3878 45.8013 14.2468 40.8494 18.8878 38.1699L77.5 4.33013Z" fill="black"/>
<path d="M128 61.2941C124.871 62.5706 121.499 63.4094 118.005 63.8106C121.58 61.8776 124.343 58.8141 125.643 55.1306C122.271 56.9541 118.533 58.2306 114.592 58.96C111.382 55.8235 106.872 54 101.752 54C92.2041 54 84.403 61.0024 84.403 69.6459C84.403 70.8859 84.5655 72.0894 84.8499 73.22C70.3853 72.5635 57.5053 66.3271 48.9321 56.8812C47.4288 59.1788 46.5755 61.8776 46.5755 64.7224C46.5755 70.1565 49.6228 74.9706 54.336 77.7059C51.4512 77.7059 48.7696 76.9765 46.413 75.8824C46.413 75.8824 46.413 75.8824 46.413 75.9918C46.413 83.5776 52.4264 89.9235 60.3901 91.3459C58.9273 91.7106 57.3834 91.8929 55.7988 91.8929C54.7017 91.8929 53.6047 91.7835 52.5483 91.6012C54.7424 97.7647 61.1214 102.36 68.8007 102.469C62.8685 106.7 55.3518 109.18 47.1444 109.18C45.7629 109.18 44.3815 109.107 43 108.961C50.7199 113.411 59.9025 116 69.7352 116C101.752 116 119.346 92.1482 119.346 71.4694C119.346 70.7765 119.346 70.12 119.305 69.4271C122.718 67.2388 125.643 64.4671 128 61.2941Z" fill="white"/>
</svg>
